# xmcd
#
# Track frame offsets:
#	225
#	12877
#	24059
#	33069
#	45796
#	56317
#	69053
#	84610
#	106373
#	118107
#	128524
#	143218
#	161899
#	177777
#	190719
#	209256
#
# Disc length: 3015 seconds
#
# Revision: 1
# Processed by: cddbd v1.5.1PL0 Copyright (c) Steve Scherf et al.
# Submitted via: audiograbber 1.83.01
#
DISCID=bc0bc410
DTITLE=Jonny Hill - County and Trucker Songs
DYEAR=1900
DGENRE=
TTITLE0=Fünfhundert Meilen von Zuhaus
TTITLE1=Ich far meine Tour
TTITLE2=Ein Ring aus Feuer
TTITLE3=Kann Liebe alles verzeih´n
TTITLE4=König der Landstrasse
TTITLE5=Green Green Grass of Home
TTITLE6=Lucille
TTITLE7=Ruf Teddybär eins-vier
TTITLE8=Mehr hinterm Lenkrad als Zuhaus
TTITLE9=Heut´ Nacht, da brauch´ ich dich
TTITLE10=Nur noch einmal nach Haus´
TTITLE11=Sylvia´s Mutter
TTITLE12=Und wieder zeigt dir einer einen Vogel
TTITLE13=Es sind nur Errinnerungen
TTITLE14=Wieder mal auf Tournee
TTITLE15=Wo der Mond versinkt
EXTD=
EXTT0=
EXTT1=
EXTT2=
EXTT3=
EXTT4=
EXTT5=
EXTT6=
EXTT7=
EXTT8=
EXTT9=
EXTT10=
EXTT11=
EXTT12=
EXTT13=
EXTT14=
EXTT15=
PLAYORDER=
